<svg width="800" height="800" viewBox="0 0 800 800" fill="none" xmlns="http://www.w3.org/2000/svg">
  <rect width="800" height="800" rx="80" fill="#F7EADF"/>
  <ellipse cx="400" cy="650" rx="170" ry="34" fill="#DFCCBF"/>
  <path d="M328 220C328 196 347 176 371 176H451C475 176 494 196 494 220V470C494 498 471 520 443 520H379C351 520 328 498 328 470V220Z" fill="#A75D35"/>
  <rect x="352" y="128" width="112" height="74" rx="20" fill="#261A16"/>
  <rect x="374" y="94" width="68" height="44" rx="12" fill="#D5A15B"/>
  <path d="M366 288H452V392C452 408 439 420 423 420H395C379 420 366 408 366 392V288Z" fill="#F0C9AA" fill-opacity="0.72"/>
</svg>
